<svg width="297" height="162" viewBox="0 0 297 162" fill="none" xmlns="http://www.w3.org/2000/svg">
<path d="M295 66L295 55.5385C295 51.1202 291.418 47.5385 287 47.5385L284.538 47.5385C280.12 47.5385 276.538 43.9567 276.538 39.5385L276.538 28.4615C276.538 24.0433 272.957 20.4615 268.538 20.4615L257.462 20.4615C253.043 20.4615 249.462 16.8798 249.462 12.4615L249.462 10C249.462 5.58172 245.88 2 241.462 2L231 2" stroke="black" stroke-width="4"/>
<rect x="287.831" y="9.16919" width="22.5846" height="22.5846" rx="6" transform="rotate(90 287.831 9.16919)" stroke="black" stroke-width="4"/>
<path d="M2.00001 96L2.00001 106.462C2.00001 110.88 5.58172 114.462 10 114.462L12.4615 114.462C16.8798 114.462 20.4615 118.043 20.4615 122.462L20.4615 133.538C20.4615 137.957 24.0433 141.538 28.4615 141.538L39.5385 141.538C43.9567 141.538 47.5385 145.12 47.5385 149.538L47.5385 152C47.5385 156.418 51.1202 160 55.5385 160L66 160" stroke="black" stroke-width="4"/>
<rect x="9.16919" y="152.831" width="22.5846" height="22.5846" rx="6" transform="rotate(-90 9.16919 152.831)" stroke="black" stroke-width="4"/>
<path d="M66 2L55.5385 2C51.1202 2 47.5385 5.58172 47.5385 10V12.4615C47.5385 16.8798 43.9567 20.4615 39.5385 20.4615L28.4615 20.4615C24.0433 20.4615 20.4615 24.0433 20.4615 28.4615L20.4615 39.5385C20.4615 43.9567 16.8798 47.5385 12.4615 47.5385H10C5.58172 47.5385 2 51.1202 2 55.5385L2 66" stroke="black" stroke-width="4"/>
<rect x="9.16919" y="9.16919" width="22.5846" height="22.5846" rx="6" stroke="black" stroke-width="4"/>
<path d="M231 160L241.462 160C245.88 160 249.462 156.418 249.462 152L249.462 149.538C249.462 145.12 253.043 141.538 257.462 141.538L268.538 141.538C272.957 141.538 276.538 137.957 276.538 133.538L276.538 122.462C276.538 118.043 280.12 114.462 284.538 114.462L287 114.462C291.418 114.462 295 110.88 295 106.462L295 96" stroke="black" stroke-width="4"/>
<rect x="287.831" y="152.831" width="22.5846" height="22.5846" rx="6" transform="rotate(-180 287.831 152.831)" stroke="black" stroke-width="4"/>
<path d="M66 4H231V0H66V4ZM231 158H66V162H231V158Z" fill="black"/>
<path d="M293 66L293 96L297 96L297 66L293 66ZM4 96L4 66L0 66L-1.31134e-06 96L4 96Z" fill="black"/>
</svg>
