<svg width="49" height="60" viewBox="0 0 49 60" fill="none" xmlns="http://www.w3.org/2000/svg">
<path d="M18.4483 43.5L18.4483 38.5C18.4483 36.2909 16.6574 34.5 14.4483 34.5L7 34.5C4.79086 34.5 3 36.2909 3 38.5L3 53C3 55.2091 4.79086 57 7 57L26.6782 57C28.8874 57 30.6782 55.2091 30.6782 53L30.6782 7C30.6782 4.79087 28.8874 3 26.6782 3L7 3C4.79086 3 3 4.79086 3 7L3 21.5C3 23.7091 4.79086 25.5 7 25.5L14.4483 25.5C16.6574 25.5 18.4483 23.7091 18.4483 21.5L18.4483 16.05M39.5749 43.5L45.2061 31.4709C45.7092 30.3963 45.7092 29.1537 45.2061 28.0791L39.5749 16.05" stroke="black" stroke-width="5" stroke-linecap="round"/>
</svg>
