<svg width="49" height="56" viewBox="0 0 49 56" fill="none" xmlns="http://www.w3.org/2000/svg">
<path d="M30.1924 15.6265V20.0441C30.1924 22.2533 31.9833 24.0441 34.1924 24.0441H42C44.2091 24.0441 46 22.2533 46 20.0441V7.00002C46 4.79088 44.2091 3.00002 42 3.00002H21.6781C19.469 3.00002 17.6781 4.79089 17.6781 7.00002V49.5059C17.6781 51.715 19.469 53.5059 21.6781 53.5059H42C44.2091 53.5059 46 51.715 46 49.5059V36.4618C46 34.2526 44.2091 32.4618 42 32.4618H34.1924C31.9833 32.4618 30.1924 34.2526 30.1924 36.4618V41.3003M8.57453 15.6265L2.93387 26.64C2.3475 27.7849 2.3475 29.1419 2.93387 30.2868L8.57453 41.3003" stroke="black" stroke-width="5" stroke-linecap="round"/>
</svg>
