<svg width="30" height="24" viewBox="0 0 30 24" fill="none" xmlns="http://www.w3.org/2000/svg">
<path fill-rule="evenodd" clip-rule="evenodd" d="M22.5813 23.735C22.9677 24.0086 23.4657 24.077 23.9097 23.909C24.3537 23.7398 24.6801 23.3606 24.7785 22.901C25.8213 18.0002 28.3509 5.59578 29.3001 1.13778C29.3721 0.801779 29.2521 0.452578 28.9881 0.228178C28.7241 0.00377795 28.3581 -0.0610223 28.0317 0.0601779C23.0001 1.92258 7.5045 7.73659 1.1709 10.0802C0.768897 10.229 0.507297 10.6154 0.520497 11.039C0.534897 11.4638 0.820497 11.8322 1.2321 11.9558C4.0725 12.8054 7.8009 13.9874 7.8009 13.9874C7.8009 13.9874 9.54331 19.2494 10.4517 21.9254C10.5657 22.2614 10.8285 22.5254 11.1753 22.6166C11.5209 22.7066 11.8905 22.6118 12.1485 22.3682C13.6077 20.9906 15.8637 18.8606 15.8637 18.8606C15.8637 18.8606 20.1501 22.0034 22.5813 23.735ZM9.36931 13.3226L11.3841 19.9682L11.8317 15.7598C11.8317 15.7598 19.6161 8.73859 24.0537 4.73658C24.1833 4.61898 24.2013 4.42218 24.0933 4.28418C23.9865 4.14618 23.7897 4.11378 23.6421 4.20738C18.4989 7.49179 9.36931 13.3226 9.36931 13.3226Z" fill="black"/>
</svg>
