<svg width="24" height="28" viewBox="0 0 24 28" fill="none" xmlns="http://www.w3.org/2000/svg">
<path fill-rule="evenodd" clip-rule="evenodd" d="M18.4023 7.00139C19.0029 6.3952 19.5322 5.72422 19.9578 5.12549L20.174 5.53233C20.8699 6.92458 21.2315 8.31123 21.2315 9.87177L21.23 12.3481L21.243 13.6318C21.2934 16.7833 21.9753 19.9718 23.52 22.8898L20.2881 20.2838L18.0014 23.9946L15.599 21.733L11.76 27.9629L7.92101 21.7331L5.51871 23.9947L3.23195 20.2839L0 22.8899C1.54467 19.9719 2.22656 16.7834 2.27705 13.6319L2.29012 12.3482L2.28863 9.87186C2.28863 8.31124 2.65011 6.92458 3.34619 5.53242L3.56225 5.12558C3.98785 5.72431 4.51705 6.39519 5.11784 7.00149L4.93024 7.39116C4.56577 8.148 4.44509 8.99425 4.72901 9.79906C4.91204 10.3174 5.24608 10.762 5.67672 11.1013C6.09485 11.4309 6.58971 11.653 7.1078 11.7697C7.44529 11.8457 7.78913 11.8769 8.13073 11.8663C8.05103 12.3181 8.01621 12.7868 8.01397 13.2642L4.96533 15.0251L7.31789 16.3438C7.50593 16.4492 7.68493 16.57 7.85307 16.7049C9.79263 18.4463 10.9587 23.598 11.7601 26.1144C12.5615 23.598 13.7276 18.4463 15.6672 16.7049C15.8353 16.57 16.0143 16.4492 16.2024 16.3438L18.5549 15.0251L15.5062 13.2642C15.504 12.7868 15.4692 12.3181 15.3895 11.8663C15.7311 11.8769 16.0749 11.8457 16.4124 11.7697C16.9305 11.653 17.4254 11.4309 17.8435 11.1013C18.274 10.762 18.6081 10.3174 18.7911 9.79906C19.0751 8.99425 18.9543 8.14809 18.5899 7.39116L18.4023 7.00149L18.4023 7.00139Z" fill="black"/>
<path fill-rule="evenodd" clip-rule="evenodd" d="M14.1698 9.97416C15.0263 9.54706 16.1161 8.91837 17.2073 8.057C17.4374 8.53477 17.4626 8.95169 17.344 9.28835C17.26 9.5256 17.1017 9.73196 16.8936 9.89613C16.6682 10.0736 16.3867 10.2027 16.0755 10.2725C15.4851 10.4055 14.7958 10.3279 14.1698 9.97416ZM14.3183 14.3502L15.4521 15.0051C13.137 16.3026 12.5077 18.7119 11.7601 21.0586C11.0126 18.7119 10.3831 16.3026 8.0682 15.0051L9.20201 14.3502C9.31169 14.3087 9.40544 14.2336 9.46982 14.1356C9.5342 14.0376 9.56591 13.9218 9.56041 13.8047C9.45653 11.6069 10.0499 10.6351 10.8504 10.0248C11.1375 9.80625 11.4509 9.69649 11.7601 9.69649C12.0693 9.69649 12.3827 9.80625 12.6699 10.0248C13.4703 10.6351 14.0637 11.6069 13.9599 13.8047C13.9544 13.9218 13.9861 14.0376 14.0505 14.1356C14.1148 14.2336 14.2086 14.3087 14.3183 14.3502ZM11.7601 0C13.0707 0.0351867 14.3845 0.289613 15.5248 0.78456C16.3144 1.12775 17.0512 1.58107 17.7183 2.12315C18.0196 2.36787 18.2677 2.60428 18.5409 2.87644C19.278 2.90192 20.3552 2.08311 20.8552 1.31693C19.9946 4.1384 16.0673 7.47031 13.3484 8.74524C13.3473 8.74477 13.3466 8.74412 13.3457 8.74356C12.8578 8.37097 12.309 8.18468 11.7601 8.18468C11.2112 8.18468 10.6625 8.37097 10.1745 8.74356C10.1737 8.74403 10.173 8.74487 10.1718 8.74524C7.45285 7.47031 3.52567 4.1384 2.66504 1.31693C3.16503 2.08311 4.24219 2.90192 4.97924 2.87644C5.25261 2.60437 5.50069 2.36787 5.80188 2.12315C6.46903 1.58107 7.2058 1.12775 7.9954 0.78456C9.13575 0.289613 10.4496 0.0351867 11.7601 0ZM9.35041 9.97416C8.49399 9.54706 7.40404 8.91837 6.31297 8.057C6.08291 8.53477 6.05771 8.95169 6.17615 9.28835C6.26024 9.5256 6.41853 9.73196 6.62657 9.89613C6.85207 10.0736 7.13356 10.2027 7.44473 10.2725C8.03516 10.4055 8.72443 10.3279 9.35041 9.97416Z" fill="black"/>
</svg>
