<svg width="102" height="133" viewBox="0 0 102 133" fill="none" xmlns="http://www.w3.org/2000/svg">
<rect x="101" y="132" width="100" height="131" rx="19" transform="rotate(180 101 132)" stroke="black" stroke-width="2"/>
<path d="M50 101C50 101.552 50.4477 102 51 102C51.5523 102 52 101.552 52 101L50 101ZM51.7071 30.2929C51.3166 29.9024 50.6834 29.9024 50.2929 30.2929L43.9289 36.6569C43.5384 37.0474 43.5384 37.6805 43.9289 38.0711C44.3194 38.4616 44.9526 38.4616 45.3431 38.0711L51 32.4142L56.6568 38.0711C57.0474 38.4616 57.6805 38.4616 58.0711 38.0711C58.4616 37.6805 58.4616 37.0474 58.0711 36.6569L51.7071 30.2929ZM52 101L52 31L50 31L50 101L52 101Z" fill="black"/>
</svg>
