<svg width="533" height="354" viewBox="0 0 533 354" fill="none" xmlns="http://www.w3.org/2000/svg">
<g filter="url(#filter0_f_25_169)">
<path d="M350.732 314C326.897 314 305.957 303.071 294.001 286.585C286.647 292.233 276.632 295.708 265.597 295.708C250.738 295.708 237.732 289.409 230.576 279.988C229.76 280.016 228.937 280.03 228.11 280.03C214.57 280.03 202.388 276.257 193.923 270.242C181.868 285.728 162.924 295.708 141.62 295.708C105.202 295.708 75.6799 266.544 75.6799 230.568C75.6799 216.074 80.4718 202.686 88.576 191.864C59.8523 186.167 40 173.963 40 159.828C40 140.243 78.1163 124.365 125.135 124.365C129.456 124.365 133.703 124.499 137.851 124.758C144.101 95.0184 174.046 72.4769 210.044 72.4769C220.155 72.4769 229.788 74.2551 238.553 77.4715C250.979 55.0104 273.511 40 299.244 40C331.197 40 358.213 63.1427 367.077 94.9558C373.906 94.1684 380.976 93.7548 388.218 93.7548C446.088 93.7548 493 120.161 493 152.736C493 173.595 473.762 191.926 444.729 202.412C442.436 212.715 430.312 222.061 411.611 229.32C415.726 237.002 418.027 245.587 418.027 254.646C418.027 287.426 387.898 314 350.732 314Z" fill="black" fill-opacity="0.15"/>
</g>
<defs>
<filter id="filter0_f_25_169" x="0" y="1.52588e-05" width="533" height="354" filterUnits="userSpaceOnUse" color-interpolation-filters="sRGB">
<feFlood flood-opacity="0" result="BackgroundImageFix"/>
<feBlend mode="normal" in="SourceGraphic" in2="BackgroundImageFix" result="shape"/>
<feGaussianBlur stdDeviation="20" result="effect1_foregroundBlur_25_169"/>
</filter>
</defs>
</svg>
