<svg width="416" height="285" viewBox="0 0 416 285" fill="none" xmlns="http://www.w3.org/2000/svg">
<path d="M357.361 125.19C355.219 121.824 354.939 117.537 356.945 114.087L414.107 15.7588C419.388 6.67585 408.882 -3.36268 400.048 2.32508L312.4 58.7605C308.313 61.3924 302.976 60.6308 299.236 57.5259C292.166 51.6579 283.697 47.2516 274.181 44.8927C258.321 40.9608 242.373 43.4163 229.052 50.6249C223.983 53.3674 217.451 52.3723 213.494 48.183C204.772 38.9496 193.388 32.0264 180.144 28.7431C147.011 20.5294 113.532 37.896 100.527 68.2947C98.4397 73.1723 93.3521 76.2776 88.0701 75.7818C49.3442 72.147 12.7368 97.2665 3.09331 136.166C-7.53168 179.025 18.5992 222.383 61.4584 233.008C72.2399 235.681 83.053 236.027 93.3687 234.367C98.4387 233.551 103.566 236.102 105.952 240.65C116.477 260.717 135.21 276.361 158.934 282.242C185.933 288.936 213.126 281.428 232.636 264.465C235.895 261.632 240.493 260.801 244.517 262.369C248.237 263.818 252.091 265.046 256.069 266.032C306.149 278.447 356.811 247.913 369.226 197.833C375.631 171.997 370.605 146.005 357.361 125.19Z" fill="#D9D9D9"/>
</svg>
