<svg width="48" height="48" viewBox="0 0 48 48" fill="none" xmlns="http://www.w3.org/2000/svg">
<rect x="1.40388" y="1.53797" width="44.9241" height="44.9241" rx="9.82714" fill="white" stroke="black" stroke-width="2.80776"/>
<path d="M19.1975 19.5325C19.269 19.5504 19.3497 19.8828 19.3687 19.9588C19.4152 20.1446 19.4674 20.3688 19.6566 20.4635C19.795 20.5327 19.9421 20.5831 20.0829 20.6548C20.3069 20.7688 20.5452 20.877 20.8025 20.877C20.8859 20.877 21.0854 20.918 21.0157 20.7786C20.9017 20.5506 20.6065 20.3797 20.4181 20.2212C20.1945 20.0331 19.9324 19.8781 19.6566 19.7784C19.5139 19.7269 19.3782 19.6586 19.2321 19.6163C19.1483 19.592 19.0309 19.5903 19.0007 19.4997" stroke="black" stroke-width="1.1231" stroke-linecap="round"/>
<path d="M26.6086 20.877C27.0085 20.7437 27.4226 20.6504 27.7873 20.4307C28.1071 20.238 28.1806 20.0546 28.3138 19.7365C28.3398 19.6743 28.6669 19.2632 28.7146 19.4487C28.7763 19.6887 28.6998 19.9449 28.6235 20.1738C28.5441 20.4122 28.4829 20.7206 28.2154 20.8114C27.7069 20.9841 27.078 21.1066 26.543 21.1066" stroke="black" stroke-width="1.1231" stroke-linecap="round"/>
<path d="M16.4756 14.2199C16.493 14.3765 16.6402 14.5395 16.7379 14.6535C16.9631 14.9163 17.1828 15.2105 17.4412 15.4406C17.9281 15.8741 18.5138 16.1631 19.0007 16.5883C19.7963 17.2831 20.7531 17.7373 21.6387 18.3009C21.8353 18.426 22.0646 18.5956 22.2308 18.7618C22.4027 18.9337 22.4394 19.1947 22.6079 19.3539C22.6523 19.3958 22.9144 19.2501 22.9687 19.23C23.1338 19.1687 23.2944 19.0482 23.4678 19.015C23.7714 18.9569 24.1183 19.0323 24.4188 19.0733C24.7099 19.113 24.9764 19.1301 25.2296 19.2883C25.3687 19.3753 25.4809 19.4433 25.6358 19.4996C25.6676 19.5112 25.6058 19.5336 25.6413 19.4341C25.7437 19.1473 25.9 18.9914 26.115 18.7764C26.4007 18.4907 26.6754 18.2424 27.0022 18.0075C27.2021 17.8639 27.4154 17.7259 27.6253 17.5976C27.8911 17.4352 28.1682 17.3353 28.4451 17.1968C28.7201 17.0593 28.9757 16.9031 29.2577 16.7778C29.4773 16.6802 29.6761 16.5577 29.8698 16.4171C30.101 16.2493 30.3667 16.1284 30.5949 15.958C30.8219 15.7885 31.0145 15.5529 31.2143 15.3531C31.5502 15.0172 31.8204 14.6734 32.1162 14.3037C32.2224 14.1709 32.3266 14.0496 32.3967 13.8938C32.449 13.7777 32.4787 13.6809 32.4787 13.8592" stroke="black" stroke-width="1.1231" stroke-linecap="round"/>
<path d="M20.9026 25.3041C20.9857 25.3041 21.0321 25.3626 21.1066 25.3952C21.351 25.5021 21.602 25.609 21.8536 25.6976C22.0565 25.7691 22.3183 25.8527 22.4603 26.0274C22.7581 26.3939 22.978 26.7832 23.2309 27.1733C23.392 27.4219 23.5458 27.7017 23.6062 27.995C23.6605 28.2585 23.7313 28.5238 23.8066 28.782C23.8635 28.9769 23.982 29.1651 24.0252 29.3595C24.0494 29.4683 24.1098 29.5881 24.1163 29.6984C24.1169 29.7089 24.1854 29.5133 24.1983 29.4616C24.2599 29.2152 24.267 28.9585 24.3477 28.7164C24.4146 28.5159 24.5065 28.324 24.5754 28.1243C24.6732 27.8414 24.7984 27.5736 24.9107 27.2972C24.9762 27.1359 25.0306 26.9692 25.1074 26.8126C25.1727 26.6796 25.1925 26.5323 25.2641 26.4045C25.3869 26.1851 25.5821 25.8886 25.7888 25.7377C26.0398 25.5546 26.4244 25.4701 26.7179 25.3879C26.9335 25.3275 26.775 25.244 26.6414 25.1401C26.4756 25.0112 26.2933 24.9599 26.124 24.845C25.7671 24.6028 25.7232 24.0812 25.7232 23.6899C25.7232 23.2195 25.7198 22.7531 25.6886 22.2853C25.6681 21.9784 25.452 21.8713 25.337 21.6058C25.2982 21.5164 25.1635 21.3422 25.0837 21.2869C24.8253 21.108 24.6243 21.0524 24.3058 21.041C24.0025 21.0301 23.7127 21.0136 23.4605 21.2377C23.3041 21.3767 23.1658 21.5751 23.0669 21.7624C22.9414 22.0004 22.7546 22.2182 22.657 22.4675C22.4456 23.0079 22.3455 23.4887 22.3455 24.0762C22.3455 24.2438 22.4111 24.403 22.4111 24.5663C22.4111 24.6932 22.2138 24.7388 22.1087 24.7794C21.9215 24.8517 21.7176 24.8351 21.5257 24.8778C21.2695 24.9347 21.1538 25.0809 20.9354 25.2057" stroke="black" stroke-width="1.1231" stroke-linecap="round"/>
<path d="M16.7051 17.1056C16.9743 17.3856 17.228 17.6795 17.4921 17.9583C17.7545 18.2353 17.4659 18.6001 17.4593 18.9421C17.4536 19.2413 17.4265 19.5427 17.4265 19.8457C17.4265 20.2097 17.4955 20.7033 17.729 20.9898C18.184 21.5483 18.7362 21.9367 19.3267 22.3362C19.7344 22.6119 20.2253 22.8934 20.7077 22.9738C20.8153 22.9918 20.6652 23.0934 20.6239 23.176C20.5268 23.3702 20.5009 23.6725 20.3451 23.8283C20.0751 24.0983 19.7699 24.3416 19.467 24.5825C19.3011 24.7144 19.1041 24.7949 18.9277 24.9104C18.795 24.9974 18.6877 25.0942 18.5743 25.2056C18.527 25.252 18.3313 25.3591 18.3138 25.4206C18.2707 25.5714 18.6904 25.7524 18.7765 25.7977C19.1628 26.001 19.5524 26.2005 19.9316 26.4171C20.2031 26.5722 20.4995 26.6769 20.7696 26.8289C20.9433 26.9265 21.0971 27.1235 21.2287 27.2716C21.4172 27.4836 21.5841 27.748 21.7534 27.9766C21.9642 28.2611 22.1056 28.6052 22.2471 28.9276C22.5475 29.6117 22.8804 30.2758 23.1398 30.9772C23.2491 31.2726 23.3468 31.5679 23.4532 31.8626C23.5528 32.1385 23.6747 32.3941 23.7301 32.6825C23.7743 32.9123 23.8881 33.1498 23.9524 33.3784C24.0391 33.6868 24.1777 34.0415 24.2129 34.3586C24.2404 34.6058 24.2475 34.8868 24.2475 35.1347C24.2475 35.425 24.3199 34.5584 24.3623 34.2711C24.4655 33.5719 24.7523 32.954 24.918 32.2762C24.9792 32.0257 25.066 31.8292 25.1657 31.593C25.3616 31.1291 25.589 30.6735 25.8143 30.223C25.9351 29.9815 26.025 29.7065 26.1167 29.4541C26.2089 29.2008 26.3081 28.9552 26.4119 28.7072C26.585 28.2937 26.989 27.8437 27.3301 27.5594C27.5405 27.3841 27.7085 27.1642 27.9459 27.0165C28.1684 26.8781 28.377 26.6825 28.609 26.5665C28.9445 26.3988 29.2841 26.169 29.5764 25.9416C29.7267 25.8247 29.9138 25.7369 30.0337 25.5827C30.1259 25.4641 29.9824 25.4277 29.9208 25.3696C29.4865 24.9594 28.8844 24.7802 28.4852 24.3202C28.3099 24.1182 28.0927 23.9559 27.8694 23.8283C27.6022 23.6756 27.4895 23.2057 27.4631 22.9283C27.4434 22.7217 27.6621 22.7991 27.8056 22.7771C28.0265 22.7431 28.2182 22.6644 28.4305 22.5985C28.8726 22.4613 29.3977 22.3291 29.775 22.0574C30.0607 21.8518 30.216 21.5817 30.3799 21.2722C30.5383 20.9729 30.5366 20.6852 30.5839 20.3595C30.6431 19.9519 30.6332 19.468 30.4783 19.0805C30.4263 18.9506 30.3716 18.8353 30.307 18.7125C30.2054 18.5194 30.1888 18.5302 30.2487 18.3354C30.3345 18.0564 30.7284 17.8988 30.9702 17.7779C31.2809 17.6225 31.4884 17.4421 31.6916 17.1712" stroke="black" stroke-width="1.1231" stroke-linecap="round"/>
<path d="M18.1809 14.8102C18.4624 14.8102 18.7135 14.376 18.8841 14.2053C19.0506 14.0389 19.267 13.888 19.4526 13.7426C19.8859 13.4029 20.4048 13.4744 20.9009 13.3326C21.6539 13.1175 22.3991 12.8813 23.1582 12.6859C23.4549 12.6095 23.7871 12.5653 24.091 12.5219C24.3554 12.4841 24.6207 12.4734 24.8853 12.5146C25.8696 12.6681 26.8639 12.7927 27.7893 13.1869C28.1539 13.3422 28.5467 13.4394 28.8697 13.677C29.0141 13.7831 29.1728 13.8862 29.3288 13.9739C29.5807 14.1156 29.7031 14.4159 29.9537 14.5551C30.1269 14.6513 30.0735 14.8606 30.1832 15.0069" stroke="black" stroke-width="2.2462" stroke-linecap="round"/>
<path d="M31.4621 18.2863C31.4621 18.653 31.7159 18.9971 31.7245 19.3757C31.7339 19.7893 31.8884 20.1927 31.8884 20.6128C31.8884 21.0791 31.954 21.5437 31.954 22.0065C31.954 22.4665 31.9338 22.9809 32.0524 23.4275C32.1544 23.8115 32.2674 24.2486 32.282 24.6482C32.298 25.0895 32.4187 25.5219 32.4478 25.9581C32.4607 26.1527 32.5502 26.333 32.5789 26.5247C32.6509 27.0045 32.8808 27.4502 33.0672 27.8929C33.2637 28.3596 33.3286 28.8659 33.4479 29.354C33.5422 29.7395 33.6919 30.1356 33.8232 30.5109C34.0003 31.0167 34.0876 31.5461 34.2751 32.0522C34.2833 32.0743 34.3334 32.0923 34.3334 32.0923C34.3334 32.0923 34.2436 32.073 34.2095 32.0449C34.049 31.9123 33.9307 31.7274 33.7905 31.5748C33.6003 31.368 33.3791 31.1894 33.151 31.0265C32.7658 30.7513 32.4074 30.4441 32.0415 30.1447C31.9465 30.067 31.7755 29.9279 31.6425 29.9279C31.496 29.9279 31.4529 30.114 31.3947 30.2303C31.1484 30.723 30.9008 31.244 30.5767 31.6914C30.3617 31.9883 30.1809 32.2393 30.0265 32.5769C30.0064 32.6208 29.9137 32.9576 29.8225 32.9048C29.7289 32.8506 29.6518 32.6907 29.5856 32.6097C29.4079 32.3919 29.227 32.1741 29.0354 31.9684C28.7486 31.6603 28.4294 31.414 28.0553 31.2269C28.0029 31.2007 27.8856 31.1868 27.8367 31.2269C27.5972 31.4228 27.4195 31.6861 27.2318 31.9301C26.766 32.5356 26.2959 33.145 25.7962 33.7228C25.657 33.8837 25.5103 34.0345 25.368 34.191C25.2821 34.2855 25.2713 34.4302 25.2241 34.5445C25.035 35.0026 24.7778 35.4645 24.4262 35.8161C24.3121 35.9302 24.2679 36.1686 24.0672 36.124C23.9979 36.1086 23.9369 35.9764 23.9015 35.9254C23.7605 35.7225 23.6564 35.498 23.5371 35.2823C23.2196 34.7081 22.88 34.1492 22.5442 33.5862C22.2995 33.176 22.0071 32.7388 21.8409 32.2908C21.7256 31.9798 21.7246 31.5946 21.5185 31.3198C21.4026 31.1652 20.9919 30.999 20.8043 31.0902C20.5426 31.2176 20.3601 31.5926 20.214 31.8226C19.9787 32.1934 19.6727 32.5519 19.314 32.8101C19.2734 32.8394 19.0877 33.0116 19.0481 32.9503C18.8105 32.5832 18.6329 32.142 18.456 31.7425C18.2263 31.2242 17.877 30.8251 17.474 30.4362C17.3096 30.2775 17.1214 30.1437 16.9602 29.9826C16.9135 29.9358 16.9022 29.8789 16.829 29.9024C16.4664 30.0189 16.2136 30.3673 15.9764 30.6421C15.6043 31.0731 15.1513 31.4182 14.6574 31.6987C14.4808 31.7991 14.1731 31.8621 14.0744 32.0595C13.9316 32.3452 14.2581 31.4475 14.3604 31.1449C14.5232 30.6638 14.7332 30.2058 14.9033 29.7293C15.0579 29.2964 15.1138 28.8357 15.2659 28.4048C15.5463 27.6105 15.8536 26.8715 15.9837 26.0328C16.0496 25.6079 16.0821 25.2019 16.0821 24.7721C16.0821 24.3239 16.0165 23.8837 16.0165 23.4348C16.0165 22.5428 16.0165 21.6515 16.0165 20.7622C16.0165 20.271 15.9837 19.7778 15.9837 19.2847C15.9837 18.7743 16.0875 18.3357 16.246 17.86" stroke="black" stroke-width="2.2462" stroke-linecap="round"/>
</svg>
