<svg width="48" height="48" viewBox="0 0 48 48" fill="none" xmlns="http://www.w3.org/2000/svg">
<rect x="1.54353" y="1.53797" width="44.9241" height="44.9241" rx="9.82714" fill="white" stroke="black" stroke-width="2.80776"/>
<path d="M11.9321 23.2328C12.3686 22.6024 13.1863 22.3033 13.8668 22.0471C14.6576 21.7493 15.4974 21.5777 16.3059 21.332C17.0405 21.1087 17.7578 20.8541 18.485 20.6117C19.3036 20.3388 20.1141 19.9905 20.9189 19.6755C21.8133 19.3256 22.756 19.1173 23.6571 18.7862C27.6493 17.3197 31.6164 15.7736 35.5121 14.0692C35.5919 14.0343 36.6421 13.6003 36.6459 13.6115C36.7237 13.8451 36.5766 14.1781 36.5054 14.3916C36.342 14.882 36.1559 15.3333 35.9178 15.7932C35.4985 16.6028 35.077 17.3979 34.9244 18.3078C34.719 19.5327 34.5767 20.7537 34.4928 21.9925C34.4226 23.0267 34.2053 24.0714 33.9883 25.0843C33.8339 25.8048 33.5783 26.5014 33.5098 27.2374C33.4478 27.9043 33.2173 28.5663 33.0886 29.224C32.9568 29.8978 32.8434 30.582 32.7609 31.2627C32.6836 31.9008 32.5998 32.541 32.5035 33.1766C32.4533 33.508 32.4944 33.879 32.3969 34.1959C32.3805 34.249 32.4132 34.4279 32.3111 34.3415C31.9622 34.0463 31.6117 33.7682 31.2371 33.5042C30.1558 32.742 29.0554 31.9925 27.8827 31.3771C27.5795 31.218 27.2372 31.1568 26.9335 31.0001C26.6838 30.8712 26.457 30.7174 26.2184 30.571C26.0895 30.4919 25.6745 30.1615 25.5736 30.3084C25.4373 30.5066 25.2755 30.6777 25.1211 30.8622C24.8409 31.1972 24.613 31.5633 24.3462 31.9076C23.9886 32.369 23.4705 32.65 23.0928 33.0881C22.9575 33.2451 22.4804 34.0489 22.2659 33.9775C22.0085 33.8916 21.7213 33.4011 21.5742 33.2026C20.7541 32.0954 19.9778 31.045 19.3379 29.8169C18.9431 29.0591 18.6416 28.2555 18.4642 27.4194C18.4104 27.1656 18.4186 26.8996 18.3446 26.6497C18.273 26.4079 18.2037 26.3739 18.0065 26.2076C17.2522 25.5711 16.3599 25.0209 15.44 24.6578C15.085 24.5177 14.7697 24.2919 14.4233 24.1325C14.0296 23.9515 13.587 23.8535 13.2063 23.6541C12.9784 23.5347 12.7367 23.425 12.5172 23.303C12.4341 23.2569 12.4023 23.2463 12.3066 23.2224C12.2053 23.1971 11.837 23.1395 12.0725 23.0924" stroke="black" stroke-width="2.2462" stroke-linecap="round"/>
<path d="M20.4436 24.7946C20.6679 24.7273 20.891 24.359 21.1255 24.2366C21.5657 24.007 21.9883 23.7341 22.4137 23.4789C23.2327 22.9875 24.0938 22.5909 24.904 22.0667C26.5943 20.973 28.5001 20.305 30.3013 19.4146C31.2643 18.9385 32.2966 18.5128 33.1532 17.8646C33.5519 17.5629 32.9363 18.186 32.857 18.2573C32.3344 18.7269 31.7549 19.1475 31.2037 19.5833C30.3837 20.2317 29.5814 20.8939 28.7651 21.5432C28.2067 21.9874 27.7227 22.4935 27.1669 22.9381C26.6424 23.3578 26.2422 23.8873 25.7134 24.2986C25.3878 24.5519 25.0217 24.8202 24.7214 25.1046C24.5597 25.2578 24.3273 25.3376 24.1497 25.4766C23.7808 25.7653 23.4527 26.1405 23.0613 26.3928C22.741 26.5992 22.9235 26.8784 22.9235 27.216C22.9235 27.9035 22.7995 28.576 22.7995 29.262C22.7995 29.3891 22.8643 30.0534 22.6755 30.0645C22.4315 30.0788 22.333 29.7383 22.2277 29.5685C21.9252 29.0803 21.6857 28.5588 21.4975 28.0151C21.1241 26.9363 20.4013 25.8821 20.2576 24.7326" stroke="black" stroke-width="1.1231" stroke-linecap="round"/>
</svg>
