<svg width="630" height="397" viewBox="0 0 630 397" fill="none" xmlns="http://www.w3.org/2000/svg">
<g filter="url(#filter0_f_25_167)">
<path d="M212.732 40C241.67 40 267.094 52.6439 281.61 71.717C290.539 65.1826 302.698 61.1621 316.097 61.1621C334.137 61.1621 349.928 68.4501 358.616 79.3496C359.607 79.3174 360.606 79.3011 361.61 79.3011C378.049 79.3011 392.84 83.6663 403.117 90.6249C417.754 72.7087 440.754 61.1621 466.62 61.1621C510.836 61.1621 546.68 94.9033 546.68 136.525C546.68 153.294 540.862 168.784 531.023 181.303C565.897 187.895 590 202.013 590 218.366C590 241.026 543.722 259.395 486.635 259.395C481.388 259.395 476.233 259.24 471.196 258.941C463.608 293.347 427.251 319.426 383.544 319.426C371.269 319.426 359.573 317.369 348.931 313.648C333.844 339.634 306.488 357 275.244 357C236.45 357 203.648 330.225 192.887 293.42C184.596 294.331 176.011 294.809 167.218 294.809C96.9576 294.809 40 264.258 40 226.572C40 202.439 63.3568 181.232 98.6068 169.1C101.391 157.18 116.111 146.367 138.817 137.969C133.821 129.082 131.027 119.15 131.027 108.669C131.027 70.7441 167.607 40 212.732 40Z" fill="black" fill-opacity="0.15"/>
</g>
<defs>
<filter id="filter0_f_25_167" x="0" y="0" width="630" height="397" filterUnits="userSpaceOnUse" color-interpolation-filters="sRGB">
<feFlood flood-opacity="0" result="BackgroundImageFix"/>
<feBlend mode="normal" in="SourceGraphic" in2="BackgroundImageFix" result="shape"/>
<feGaussianBlur stdDeviation="20" result="effect1_foregroundBlur_25_167"/>
</filter>
</defs>
</svg>
