<svg width="49" height="48" viewBox="0 0 49 48" fill="none" xmlns="http://www.w3.org/2000/svg">
<rect x="1.69106" y="1.41176" width="45.1765" height="45.1765" rx="9.88235" fill="white" stroke="black" stroke-width="2.82353"/>
<path d="M13.8323 13.9836C15.4567 13.9836 17.1759 14.17 18.7617 13.7736C19.596 13.565 20.358 13.5312 21.2643 13.5636C21.5656 13.5743 21.4614 13.9515 21.5035 14.1411C21.59 14.5302 21.8327 14.7956 22.0752 15.092C22.6042 15.7386 23.0385 16.4689 23.5978 17.1104C24.1622 17.7578 24.6546 18.4684 25.0445 19.2339C26.3644 21.8247 27.2162 24.6616 28.8481 27.1093C29.6986 28.385 30.9398 29.4221 31.8991 30.6211C32.4888 31.3583 33.1317 32.428 33.9117 32.9896C34.1565 33.1659 34.353 33.4543 34.5709 33.6721C34.8506 33.9519 34.8341 33.876 34.4659 34.0397C33.8361 34.3196 32.9988 34.4597 32.3132 34.4597C31.7931 34.4597 31.257 34.3145 30.7382 34.2497C30.283 34.1928 29.6539 34.2624 29.2214 34.1388C29.1282 34.1122 29.0166 33.8026 28.9472 33.7246C28.7017 33.4484 28.4755 33.1493 28.218 32.8846C27.6734 32.3249 27.1072 31.7862 26.5613 31.2278C23.9379 28.5449 21.4957 25.6267 19.6076 22.3607C19.1512 21.5714 18.6082 20.7921 18.0383 20.0798C17.4432 19.3358 17.0455 18.4384 16.5041 17.6588C15.8913 16.7763 15.1202 15.8523 14.7773 14.8236" stroke="black" stroke-width="2.25882" stroke-linecap="round"/>
<path d="M33.7831 13.9835C33.7507 14.3081 33.4604 14.4996 33.2581 14.7244C32.845 15.1834 32.5155 15.7295 32.0797 16.1653C31.4519 16.7931 30.684 17.3 29.9679 17.8162C29.4435 18.1943 29.1042 18.7483 28.6379 19.1813C28.2418 19.5491 27.9907 20.091 27.5878 20.4939C27.3551 20.7265 27.1002 21.049 26.9578 21.3339" stroke="black" stroke-width="2.25882" stroke-linecap="round"/>
<path d="M21.3925 27.1092C19.599 28.9027 17.9874 30.8377 16.2472 32.6745C15.9761 32.9607 15.8468 33.3899 15.5647 33.6721C15.2143 34.0225 14.921 34.4207 14.5671 34.7746" stroke="black" stroke-width="2.25882" stroke-linecap="round"/>
</svg>
